<svg width="82" height="20" viewBox="0 0 82 20" fill="none" xmlns="http://www.w3.org/2000/svg">
<path d="M0.940274 19.8789V15.3789H13.8403C15.5503 15.3789 16.1203 14.8389 16.1203 13.8789C16.1203 12.8889 15.5503 12.3789 13.8403 12.3789H7.09027C2.59027 12.3789 0.430273 9.64891 0.430273 6.19891C0.430273 2.71891 2.59027 0.378905 7.21027 0.378905H19.8103V4.87891H7.21027C5.50027 4.87891 4.93027 5.38891 4.93027 6.37891C4.93027 7.33891 5.50027 7.87891 7.21027 7.87891H13.9603C18.4603 7.87891 20.6203 10.6089 20.6203 14.0589C20.6203 17.5389 18.4603 19.8789 13.8403 19.8789H0.940274ZM23.0322 19.8789V0.378905H27.8322V19.8789H23.0322ZM30.9152 11.7789V7.18891L44.5952 1.96891V5.17891L33.3152 9.46891L44.5952 13.7889V16.9989L30.9152 11.7789ZM50.7232 12.3789V7.87891H58.2232C60.0232 7.87891 60.6532 7.27891 60.6532 6.37891C60.6532 5.47891 59.8732 4.87891 58.3432 4.87891H47.3932V0.378905H58.1932C63.5932 0.378905 65.4532 2.7789 65.4532 6.37891C65.4532 7.84891 65.0332 8.98891 64.3132 9.85891C65.4532 10.8189 66.1132 12.1389 66.1132 13.8789C66.1132 17.4789 64.3132 19.8789 58.7932 19.8789H47.3932V15.3789H58.3132C60.4732 15.3789 61.3132 14.7789 61.3132 13.8789C61.3132 12.9789 60.4432 12.3789 58.4932 12.3789H50.7232ZM81.581 11.7789L67.901 16.9989V13.7889L79.181 9.49891L67.901 5.17891V1.96891L81.581 7.18891V11.7789Z" fill="black"/>
</svg>
