<svg width="120" height="120" viewBox="0 0 120 120" fill="none" xmlns="http://www.w3.org/2000/svg">
<path d="M59.9734 119C66.8021 119 72.6172 114.936 75.2313 109.052C75.8715 107.608 74.8045 106.004 73.2573 106.004H46.7428C45.1957 106.004 44.1287 107.608 44.7689 109.052C47.3297 114.882 53.1981 119 59.9734 119Z" fill="url(#paint0_linear_2263_88)"/>
<path d="M100.732 89.9046C96.4108 89.9046 92.8898 86.3747 92.8898 82.0426V53.5361C92.8898 38.0795 82.3267 25.1366 68.0291 21.5532C67.4956 17.4885 64.0279 14.333 59.8667 14.333C55.7054 14.333 52.1844 17.4885 51.6509 21.6067C38.9005 24.9227 29.0842 35.8332 27.3771 49.204C27.3771 49.4179 27.3237 49.5784 27.3237 49.7923C27.2704 50.0597 27.2704 50.3271 27.217 50.5946C27.1637 50.862 27.1637 51.1294 27.1637 51.3968C27.1637 51.6107 27.1103 51.8247 27.1103 52.0386C27.1103 52.4665 27.057 52.9478 27.057 53.4292C27.057 53.4826 27.057 53.5361 27.057 53.5361V81.9891C27.057 86.3213 23.5893 89.7977 19.3214 89.8511C17.2941 89.8511 15.5869 91.4556 15.5869 93.488V93.5415C15.5869 95.5738 17.2407 97.2318 19.268 97.2318H100.785C102.813 97.2318 104.467 95.5738 104.467 93.5415C104.413 91.5626 102.759 89.9046 100.732 89.9046Z" fill="url(#paint1_linear_2263_88)"/>
<path d="M83.607 15.9382C92.783 17.917 99.7718 25.8325 100.625 35.1921C100.732 36.2083 101.639 37.0105 102.706 36.9035C103.186 36.85 103.666 36.6361 103.986 36.2082C104.306 35.8339 104.466 35.299 104.413 34.8177C103.933 29.3624 101.692 24.2815 98.0646 20.2168C94.4368 16.1521 89.7421 13.371 84.4072 12.2478C84.3005 12.2478 84.1405 12.1943 84.0338 12.1943C83.1802 12.1943 82.3799 12.7827 82.1665 13.6919C81.8998 14.708 82.5933 15.7242 83.607 15.9382Z" fill="url(#paint2_linear_2263_88)"/>
<path d="M85.6875 3.74382C99.9317 6.79235 110.868 19.1469 112.202 33.6944C112.309 34.7105 113.216 35.5128 114.283 35.4058C114.763 35.3523 115.243 35.1384 115.563 34.7105C115.883 34.3362 116.043 33.8013 115.99 33.32C115.243 25.2975 111.989 17.8099 106.6 11.7663C101.265 5.77617 94.2767 1.71146 86.4877 0.0534831C86.381 0 86.221 0 86.1143 0C85.2607 0 84.4605 0.588314 84.2471 1.49753C84.0337 2.51371 84.6739 3.52988 85.6875 3.74382Z" fill="url(#paint3_linear_2263_88)"/>
<path d="M36.3929 15.9382C37.4066 15.7242 38.0467 14.708 37.8334 13.6919C37.62 12.7827 36.8731 12.1943 35.9661 12.1943C35.8594 12.1943 35.6994 12.1943 35.5927 12.2478C30.3111 13.371 25.5631 16.1521 21.9353 20.2168C18.2542 24.335 16.0669 29.3624 15.5868 34.8712C15.5334 35.3525 15.6935 35.8874 16.0136 36.2617C16.3337 36.6361 16.8138 36.9035 17.2939 36.957C18.3609 37.064 19.2679 36.2617 19.3746 35.2456C20.2281 25.8325 27.2169 17.917 36.3929 15.9382Z" fill="url(#paint4_linear_2263_88)"/>
<path d="M34.2591 3.74382C35.2727 3.52988 35.9129 2.51371 35.6995 1.49753C35.5394 0.588314 34.7392 0 33.8856 0C33.7789 0 33.6189 0 33.5122 0.0534831C25.6698 1.71146 18.7345 5.77617 13.3996 11.7663C8.01129 17.8099 4.757 25.2975 4.01011 33.32C3.95676 33.8013 4.11681 34.3362 4.4369 34.7105C4.757 35.0849 5.23714 35.3523 5.71728 35.4058C6.78426 35.5128 7.6912 34.7105 7.74455 33.6944C9.13162 19.1469 20.0148 6.84584 34.2591 3.74382Z" fill="url(#paint5_linear_2263_88)"/>
<defs>
<linearGradient id="paint0_linear_2263_88" x1="77.8518" y1="77.8403" x2="56.0309" y2="114.84" gradientUnits="userSpaceOnUse">
<stop stop-color="#FF94A6"/>
<stop offset="0.32" stop-color="#E03DC1"/>
<stop offset="1" stop-color="#8247E5"/>
</linearGradient>
<linearGradient id="paint1_linear_2263_88" x1="88.2629" y1="36.8376" x2="42.25" y2="102.064" gradientUnits="userSpaceOnUse">
<stop stop-color="#FF94A6"/>
<stop offset="0.32" stop-color="#E03DC1"/>
<stop offset="1" stop-color="#8247E5"/>
</linearGradient>
<linearGradient id="paint2_linear_2263_88" x1="125.199" y1="3.27967" x2="13.6776" y2="77.1174" gradientUnits="userSpaceOnUse">
<stop stop-color="#FF94A6"/>
<stop offset="0.32" stop-color="#E03DC1"/>
<stop offset="1" stop-color="#8247E5"/>
</linearGradient>
<linearGradient id="paint3_linear_2263_88" x1="124.154" y1="1.70306" x2="12.6327" y2="75.5408" gradientUnits="userSpaceOnUse">
<stop stop-color="#FF94A6"/>
<stop offset="0.32" stop-color="#E03DC1"/>
<stop offset="1" stop-color="#8247E5"/>
</linearGradient>
<linearGradient id="paint4_linear_2263_88" x1="104.403" y1="-28.125" x2="-7.11758" y2="45.7181" gradientUnits="userSpaceOnUse">
<stop stop-color="#FF94A6"/>
<stop offset="0.32" stop-color="#E03DC1"/>
<stop offset="1" stop-color="#8247E5"/>
</linearGradient>
<linearGradient id="paint5_linear_2263_88" x1="98.935" y1="-36.3833" x2="-12.5362" y2="37.4267" gradientUnits="userSpaceOnUse">
<stop stop-color="#FF94A6"/>
<stop offset="0.32" stop-color="#E03DC1"/>
<stop offset="1" stop-color="#8247E5"/>
</linearGradient>
</defs>
</svg>