<svg width="38" height="38" viewBox="0 0 38 38" fill="none" xmlns="http://www.w3.org/2000/svg">
<path d="M37.914 18.7808L35.3512 16.0383C35.2539 15.9356 35.1019 15.9067 34.9746 15.9698L29.527 18.6503C29.4179 18.7049 29.3483 18.8162 29.3483 18.9381C29.3483 19.0601 29.4179 19.1725 29.527 19.2271L34.9746 21.9129C35.0195 21.9354 35.0677 21.9461 35.1158 21.9461C35.2004 21.9461 35.2838 21.9129 35.3459 21.8498L37.9086 19.2249C38.0285 19.1019 38.0306 18.906 37.914 18.7808ZM35.0495 21.2345L30.3959 18.9392L35.0441 16.6504L37.2356 18.9949L35.0495 21.2345ZM32.8249 22.6683C32.7692 22.7828 32.6547 22.8502 32.536 22.8502C32.4889 22.8502 32.4407 22.8395 32.3958 22.8181L27.2147 20.3132L26.8016 20.1131C26.7053 20.066 26.6433 19.9782 26.6262 19.8809C26.6326 19.822 26.639 19.7632 26.6433 19.7043C26.6657 19.4721 26.6764 19.2378 26.6764 19.0002C26.6764 18.6931 26.6583 18.3914 26.6229 18.0939C26.6219 18.0896 26.6219 18.0853 26.6219 18.081C26.6101 17.9526 26.6786 17.8242 26.8016 17.7643L27.1954 17.5738L32.3958 15.0592C32.5552 14.9822 32.7478 15.0485 32.8249 15.209C32.9019 15.3685 32.8356 15.56 32.6761 15.637L27.2832 18.2437C27.3067 18.493 27.3185 18.7455 27.3185 19.0002C27.3185 19.2153 27.3099 19.4272 27.2939 19.638L32.6761 22.2403C32.8356 22.3174 32.9019 22.5089 32.8249 22.6683ZM8.47298 18.6503L3.02542 15.9698C2.89808 15.9067 2.74614 15.9356 2.64877 16.0383L0.0860265 18.7808C-0.0306076 18.906 -0.0284675 19.1019 0.0913767 19.2249L2.65412 21.8498C2.71618 21.9129 2.79964 21.9461 2.88417 21.9461C2.93233 21.9461 2.98048 21.9354 3.02542 21.9129L8.47298 19.2271C8.58212 19.1725 8.65167 19.0612 8.65167 18.9381C8.65167 18.8151 8.58212 18.7049 8.47298 18.6503ZM2.95052 21.2345L0.7655 18.9949L2.95587 16.6504L7.60411 18.9392L2.95052 21.2345ZM21.9105 2.65414L19.2857 0.0913777C19.1637 -0.0284678 18.9679 -0.0306079 18.8427 0.0860274L16.1002 2.64879C15.9964 2.74617 15.9686 2.89812 16.0317 3.02545L18.7122 8.47307C18.7657 8.58222 18.878 8.65177 19 8.65177C19.122 8.65177 19.2343 8.58222 19.2878 8.47307L21.9747 3.02545C22.0357 2.90133 22.01 2.75152 21.9105 2.65414ZM19.0011 7.60419L16.7123 2.9559L19.0567 0.765508L21.2952 2.95055L19.0011 7.60419ZM20.36 27.1839L22.8789 32.3962C22.9559 32.5567 22.8896 32.7482 22.7302 32.8252C22.6852 32.8466 22.6371 32.8573 22.59 32.8573C22.4712 32.8573 22.3567 32.791 22.3011 32.6754L19.6859 27.2642C19.4687 27.2824 19.2493 27.2909 19.0278 27.2909C18.7881 27.2909 18.5517 27.2802 18.3173 27.2599L15.6989 32.6754C15.6433 32.791 15.5288 32.8573 15.41 32.8573C15.3629 32.8573 15.3148 32.8466 15.2699 32.8252C15.1104 32.7482 15.0441 32.5567 15.1211 32.3962L17.6443 27.1754C14.1474 26.5858 11.3878 23.7983 10.8378 20.2875L5.60421 22.8181C5.55927 22.8395 5.51111 22.8502 5.46403 22.8502C5.34526 22.8502 5.23076 22.7828 5.17512 22.6683C5.09808 22.5089 5.16442 22.3174 5.32493 22.2403L10.7607 19.6112C10.7457 19.41 10.7382 19.2057 10.7382 19.0002C10.7382 18.7541 10.7489 18.5112 10.7714 18.2704L5.32493 15.637C5.16442 15.56 5.09808 15.3685 5.17512 15.209C5.25217 15.0485 5.44477 14.9822 5.60421 15.0592L10.857 17.5995C11.4477 14.1422 14.1848 11.4082 17.6443 10.825L15.1211 5.60427C15.0441 5.44376 15.1104 5.25222 15.2699 5.17518C15.4293 5.09814 15.6219 5.16448 15.6989 5.32499L18.3173 10.7405C18.5517 10.7202 18.7881 10.7095 19.0278 10.7095C19.2493 10.7095 19.4687 10.718 19.6859 10.7362L22.3011 5.32499C22.3781 5.16448 22.5707 5.09814 22.7302 5.17518C22.8896 5.25222 22.9559 5.44376 22.8789 5.60427L20.36 10.8165C23.8355 11.3804 26.593 14.1122 27.1954 17.5738L26.8016 17.7643C26.6786 17.8242 26.6101 17.9526 26.6219 18.081C26.166 14.2952 22.9345 11.3515 19.0278 11.3515C14.8108 11.3515 11.3803 14.7831 11.3803 19.0002C11.3803 23.2173 14.8108 26.6489 19.0278 26.6489C22.9484 26.6489 26.1885 23.6849 26.6262 19.8809C26.6433 19.9782 26.7053 20.066 26.8016 20.1131L27.2147 20.3132C26.6529 23.8283 23.8729 26.6136 20.36 27.1839ZM21.9747 34.975L19.2878 29.5274C19.2343 29.4182 19.122 29.3487 19 29.3487C18.878 29.3487 18.7657 29.4182 18.7122 29.5274L16.0317 34.975C15.9686 35.1023 15.9964 35.2543 16.1002 35.3516L18.8427 37.9144C18.9048 37.9711 18.9829 38 19.0621 38C19.1412 38 19.2236 37.97 19.2857 37.909L21.9105 35.3463C22.01 35.2489 22.0357 35.0991 21.9747 34.975ZM19.0567 37.2349L16.7123 35.0445L19.0011 30.3962L21.2952 35.0499L19.0567 37.2349ZM35.6883 2.71407C35.6862 2.54179 35.5503 2.40268 35.378 2.39733L31.6275 2.27C31.5045 2.26358 31.3974 2.32778 31.3375 2.4305L26.196 11.3654C26.1232 11.4917 26.1446 11.65 26.2474 11.7528C26.3084 11.8148 26.3907 11.8469 26.4742 11.8469C26.5288 11.8469 26.5844 11.833 26.6336 11.8041L35.5717 6.66362C35.6722 6.60584 35.7343 6.49776 35.7322 6.38219L35.6883 2.71407ZM27.3463 10.6538L31.7976 2.91738L35.0506 3.02759L35.088 6.20136L27.3463 10.6538ZM11.6595 26.2541C11.5568 26.1513 11.3985 26.1299 11.2722 26.2027L2.33738 31.3454C2.23466 31.4042 2.1726 31.5155 2.17688 31.6343L2.30421 35.3848C2.30956 35.5571 2.44867 35.693 2.62094 35.6951L6.28903 35.739H6.29224C6.40781 35.739 6.51374 35.678 6.57045 35.5785L11.7109 26.6404C11.7837 26.5152 11.7623 26.3568 11.6595 26.2541ZM6.1082 35.0948L2.93447 35.0574L2.82425 31.8055L10.5606 27.353L6.1082 35.0948ZM35.5289 31.3882L26.593 26.2455C26.4667 26.1738 26.3084 26.1941 26.2056 26.2969C26.1029 26.3996 26.0826 26.558 26.1543 26.6842L31.2947 35.6213C31.3514 35.7219 31.4584 35.7829 31.5729 35.7829H31.5772L35.2453 35.739C35.4165 35.7368 35.5556 35.5999 35.562 35.4287L35.6894 31.6771C35.6936 31.5583 35.6316 31.447 35.5289 31.3882ZM34.9307 35.1002L31.757 35.1387L27.3046 27.3958L35.0409 31.8483L34.9307 35.1002ZM11.7569 11.3226L6.61432 2.38663C6.55547 2.28391 6.44526 2.22184 6.32541 2.22613L2.57386 2.35346C2.40266 2.35881 2.26569 2.49899 2.26355 2.6702L2.21968 6.33832C2.21861 6.45496 2.2796 6.56303 2.38019 6.62082L11.3182 11.7613C11.3685 11.7902 11.4231 11.8041 11.4776 11.8041C11.5611 11.8041 11.6435 11.772 11.7056 11.71C11.8083 11.6072 11.8286 11.4489 11.7569 11.3226ZM2.86384 6.15856L2.90236 2.98479L6.15421 2.87457L10.6066 10.611L2.86384 6.15856Z" fill="url(#paint0_linear_313_4117)"/>
<defs>
<linearGradient id="paint0_linear_313_4117" x1="0.000423505" y1="19.0002" x2="38.0006" y2="19.0002" gradientUnits="userSpaceOnUse">
<stop offset="0.28" stop-color="#672D91"/>
<stop offset="0.41" stop-color="#83238F"/>
<stop offset="0.71" stop-color="#CB0B8D"/>
<stop offset="0.82" stop-color="#EA018C"/>
</linearGradient>
</defs>
</svg>
