<svg width="21" height="21" viewBox="0 0 21 21" fill="none" xmlns="http://www.w3.org/2000/svg">
<path d="M10.3568 9.63434C10.2734 9.62601 10.1734 9.62601 10.0818 9.63434C8.09844 9.56768 6.52344 7.94268 6.52344 5.94268C6.52344 3.90101 8.17344 2.24268 10.2234 2.24268C12.2651 2.24268 13.9234 3.90101 13.9234 5.94268C13.9151 7.94268 12.3401 9.56768 10.3568 9.63434Z" stroke="#696969" stroke-width="1.5" stroke-linecap="round" stroke-linejoin="round"/>
<path d="M6.18828 12.7097C4.17161 14.0597 4.17161 16.2597 6.18828 17.6013C8.47995 19.1347 12.2383 19.1347 14.5299 17.6013C16.5466 16.2513 16.5466 14.0513 14.5299 12.7097C12.2466 11.1847 8.48828 11.1847 6.18828 12.7097Z" stroke="#696969" stroke-width="1.5" stroke-linecap="round" stroke-linejoin="round"/>
</svg>
